<?xml version='1.0' encoding='ASCII' standalone='yes'?>
<svg xmlns="http://www.w3.org/2000/svg" xmlns:xlink="http://www.w3.org/1999/xlink" version="1.1" height="580mm" width="760mm">
  <g>
    <g transform="translate(283.8224414303329, 190.0) scale(0.2466091245376079 0.2466091245376079) "><circle r=".5" stroke="#000" fill="none" transform="matrix(351.96188 0 0 -351.96188 390 405.5)" stroke-width=".002"/>
  <circle r=".5" stroke="#000" fill="none" transform="scale(-351.96188 351.96188) rotate(-60 .444 1.536)" stroke-width=".002"/>
  <circle r=".5" stroke="#000" fill="none" transform="scale(351.96188 -351.96188) rotate(-60 -.444 -1.536)" stroke-width=".002"/>
  <circle r=".5" stroke="#000" fill="none" transform="scale(351.96188 -351.96188) rotate(60 1.552 .384)" stroke-width=".002"/>
  <circle r=".5" stroke="#000" fill="none" transform="scale(-351.96188 351.96188) rotate(60 -1.552 -.384)" stroke-width=".002"/>
  <circle r=".5" stroke="#000" fill="none" transform="matrix(-351.96188 0 0 351.96188 390 405.5)" stroke-width=".002"/>
  <circle r=".5" stroke="#000" fill="none" transform="scale(-341.40302 341.40302) rotate(-57 .5 1.609)" stroke-width=".002"/>
  <circle r=".5" stroke="#000" fill="none" transform="scale(-341.40302 341.40302) rotate(63 -1.56 -.304)" stroke-width=".002"/>
  <circle r=".5" stroke="#000" fill="none" transform="scale(341.40302 -341.40302) rotate(-57 -.545 -1.683)" stroke-width=".002"/>
  <circle r=".5" stroke="#000" fill="none" transform="scale(341.40302 -341.40302) rotate(3 23.27 22.006)" stroke-width=".002"/>
  <circle r=".5" stroke="#000" fill="none" transform="scale(341.40302 -341.40302) rotate(63 1.521 .373)" stroke-width=".002"/>
  <circle r=".5" stroke="#000" fill="none" transform="scale(-341.40302 341.40302) rotate(3 -23.23 -20.43)" stroke-width=".002"/>
  <circle r=".5" stroke="#000" fill="none" transform="scale(-331.16093 331.16093) rotate(-54 .565 1.69)" stroke-width=".002"/>
  <circle r=".5" stroke="#000" fill="none" transform="scale(331.16093 -331.16093) rotate(-54 -.661 -1.846)" stroke-width=".002"/>
  <circle r=".5" stroke="#000" fill="none" transform="scale(-331.16093 331.16093) rotate(66 -1.568 -.227)" stroke-width=".002"/>
  <circle r=".5" stroke="#000" fill="none" transform="scale(-331.16093 331.16093) rotate(6 -12.25 -9.824)" stroke-width=".002"/>
  <circle r=".5" stroke="#000" fill="none" transform="scale(331.16093 -331.16093) rotate(66 1.495 .362)" stroke-width=".002"/>
  <circle r=".5" stroke="#000" fill="none" transform="scale(331.16093 -331.16093) rotate(6 12.292 11.423)" stroke-width=".002"/>
  <circle r=".5" stroke="#000" fill="none" transform="scale(-321.2261 321.2261) rotate(69 -1.579 -.153)" stroke-width=".002"/>
  <circle r=".5" stroke="#000" fill="none" transform="scale(-321.2261 321.2261) rotate(-51 .639 1.778)" stroke-width=".002"/>
  <circle r=".5" stroke="#000" fill="none" transform="scale(321.2261 -321.2261) rotate(-51 -.794 -2.03)" stroke-width=".002"/>
  <circle r=".5" stroke="#000" fill="none" transform="scale(321.2261 -321.2261) rotate(69 1.472 .351)" stroke-width=".002"/>
  <circle r=".5" stroke="#000" fill="none" transform="scale(-321.2261 321.2261) rotate(9 -8.605 -6.27)" stroke-width=".002"/>
  <circle r=".5" stroke="#000" fill="none" transform="scale(321.2261 -321.2261) rotate(9 8.649 7.894)" stroke-width=".002"/>
  <circle r=".5" stroke="#000" fill="none" transform="scale(-311.58932 311.58932) rotate(-48 .725 1.876)" stroke-width=".002"/>
  <circle r=".5" stroke="#000" fill="none" transform="scale(-311.58932 311.58932) rotate(72 -1.591 -.082)" stroke-width=".002"/>
  <circle r=".5" stroke="#000" fill="none" transform="scale(311.58932 -311.58932) rotate(72 1.452 .34)" stroke-width=".002"/>
  <circle r=".5" stroke="#000" fill="none" transform="scale(311.58932 -311.58932) rotate(-48 -.947 -2.237)" stroke-width=".002"/>
  <circle r=".5" stroke="#000" fill="none" transform="scale(-311.58932 311.58932) rotate(12 -6.794 -4.479)" stroke-width=".002"/>
  <circle r=".5" stroke="#000" fill="none" transform="scale(311.58932 -311.58932) rotate(12 6.84 6.128)" stroke-width=".002"/>
  <circle r=".5" stroke="#000" fill="none" transform="scale(-302.24164 302.24164) rotate(75 -1.605 -.012)" stroke-width=".002"/>
  <circle r=".5" stroke="#000" fill="none" transform="scale(-302.24164 302.24164) rotate(-45 .824 1.985)" stroke-width=".002"/>
  <circle r=".5" stroke="#000" fill="none" transform="scale(302.24164 -302.24164) rotate(-45 -1.124 -2.472)" stroke-width=".002"/>
  <circle r=".5" stroke="#000" fill="none" transform="scale(302.24164 -302.24164) rotate(75 1.434 .328)" stroke-width=".002"/>
  <circle r=".5" stroke="#000" fill="none" transform="scale(-302.24164 302.24164) rotate(15 -5.716 -3.392)" stroke-width=".002"/>
  <circle r=".5" stroke="#000" fill="none" transform="scale(302.24164 -302.24164) rotate(15 5.765 5.067)" stroke-width=".002"/>
  <circle r=".5" stroke="#000" fill="none" transform="scale(-293.1744 293.1744) rotate(-42 .94 2.108)" stroke-width=".002"/>
  <circle r=".5" stroke="#000" fill="none" transform="scale(-293.1744 293.1744) rotate(78 -1.62 .057)" stroke-width=".002"/>
  <circle r=".5" stroke="#000" fill="none" transform="scale(293.1744 -293.1744) rotate(78 1.42 .316)" stroke-width=".002"/>
  <circle r=".5" stroke="#000" fill="none" transform="scale(-293.1744 293.1744) rotate(18 -5.005 -2.657)" stroke-width=".002"/>
  <circle r=".5" stroke="#000" fill="none" transform="scale(293.1744 -293.1744) rotate(-42 -1.332 -2.74)" stroke-width=".002"/>
  <circle r=".5" stroke="#000" fill="none" transform="scale(293.1744 -293.1744) rotate(18 5.058 4.359)" stroke-width=".002"/>
  <circle r=".5" stroke="#000" fill="none" transform="scale(-284.37916 284.37916) rotate(81 -1.635 .124)" stroke-width=".002"/>
  <circle r=".5" stroke="#000" fill="none" transform="scale(-284.37916 284.37916) rotate(-39 1.078 2.248)" stroke-width=".002"/>
  <circle r=".5" stroke="#000" fill="none" transform="scale(284.37916 -284.37916) rotate(81 1.406 .304)" stroke-width=".002"/>
  <circle r=".5" stroke="#000" fill="none" transform="scale(284.37916 -284.37916) rotate(-39 -1.577 -3.05)" stroke-width=".002"/>
  <circle r=".5" stroke="#000" fill="none" transform="scale(-284.37916 284.37916) rotate(21 -4.504 -2.123)" stroke-width=".002"/>
  <circle r=".5" stroke="#000" fill="none" transform="scale(284.37916 -284.37916) rotate(21 4.56 3.851)" stroke-width=".002"/>
  <circle r=".5" stroke="#000" fill="none" transform="scale(-275.84779 275.84779) rotate(-36 1.242 2.41)" stroke-width=".002"/>
  <circle r=".5" stroke="#000" fill="none" transform="scale(-275.84778 275.84778) rotate(84 -1.651 .19)" stroke-width=".002"/>
  <circle r=".5" stroke="#000" fill="none" transform="scale(275.84778 -275.84778) rotate(84 1.395 .291)" stroke-width=".002"/>
  <circle r=".5" stroke="#000" fill="none" transform="scale(-275.84778 275.84778) rotate(24 -4.134 -1.713)" stroke-width=".002"/>
  <circle r=".5" stroke="#000" fill="none" transform="scale(275.84779 -275.84779) rotate(-36 -1.868 -3.412)" stroke-width=".002"/>
  <circle r=".5" stroke="#000" fill="none" transform="scale(275.84778 -275.84778) rotate(24 4.195 3.469)" stroke-width=".002"/>
  <circle r=".5" stroke="#000" fill="none" transform="scale(-267.57235 267.57235) rotate(87 -1.669 .257)" stroke-width=".002"/>
  <circle r=".5" stroke="#000" fill="none" transform="scale(-267.57236 267.57236) rotate(-33 1.44 2.597)" stroke-width=".002"/>
  <circle r=".5" stroke="#000" fill="none" transform="scale(267.57235 -267.57235) rotate(87 1.386 .278)" stroke-width=".002"/>
  <circle r=".5" stroke="#000" fill="none" transform="scale(267.57236 -267.57236) rotate(-33 -2.22 -3.84)" stroke-width=".002"/>
  <circle r=".5" stroke="#000" fill="none" transform="scale(-267.57235 267.57235) rotate(27 -3.852 -1.386)" stroke-width=".002"/>
  <circle r=".5" stroke="#000" fill="none" transform="scale(267.57235 -267.57235) rotate(27 3.918 3.17)" stroke-width=".002"/>
  <circle r=".5" stroke="#000" fill="none" transform="matrix(0 259.54518 259.54518 0 353.857 521.856)" stroke-width=".002"/>
  <circle r=".5" stroke="#000" fill="none" transform="scale(-259.54518 259.54518) rotate(-30 1.68 2.818)" stroke-width=".002"/>
  <circle r=".5" stroke="#000" fill="none" transform="scale(259.54518 -259.54518) rotate(90 1.378 .264)" stroke-width=".002"/>
  <circle r=".5" stroke="#000" fill="none" transform="scale(-259.54518 259.54518) rotate(30 -3.631 -1.117)" stroke-width=".002"/>
  <circle r=".5" stroke="#000" fill="none" transform="scale(259.54518 -259.54518) rotate(-30 -2.648 -4.352)" stroke-width=".002"/>
  <circle r=".5" stroke="#000" fill="none" transform="scale(259.54518 -259.54518) rotate(30 3.702 2.929)" stroke-width=".002"/>
  <circle r=".5" stroke="#000" fill="none" transform="scale(251.75883 -251.75883) rotate(-87 -.411 -1.798)" stroke-width=".002"/>
  <circle r=".5" stroke="#000" fill="none" transform="scale(-251.75883 251.75883) rotate(-27 1.979 3.085)" stroke-width=".002"/>
  <circle r=".5" stroke="#000" fill="none" transform="scale(-251.75883 251.75883) rotate(33 -3.454 -.889)" stroke-width=".002"/>
  <circle r=".5" stroke="#000" fill="none" transform="scale(-251.75883 251.75883) rotate(-87 -.263 1.445)" stroke-width=".002"/>
  <circle r=".5" stroke="#000" fill="none" transform="scale(251.75883 -251.75883) rotate(-27 -3.181 -4.978)" stroke-width=".002"/>
  <circle r=".5" stroke="#000" fill="none" transform="scale(251.75883 -251.75883) rotate(33 3.532 2.73)" stroke-width=".002"/>
  <circle r=".5" stroke="#000" fill="none" transform="scale(244.20606 -244.20606) rotate(-84 -.508 -1.916)" stroke-width=".003"/>
  <circle r=".5" stroke="#000" fill="none" transform="scale(-244.20606 244.20606) rotate(-24 2.358 3.414)" stroke-width=".003"/>
  <circle r=".5" stroke="#000" fill="none" transform="scale(-244.20606 244.20606) rotate(36 -3.311 -.692)" stroke-width=".003"/>
  <circle r=".5" stroke="#000" fill="none" transform="scale(-244.20606 244.20606) rotate(-84 -.26 1.518)" stroke-width=".003"/>
  <circle r=".5" stroke="#000" fill="none" transform="scale(244.20606 -244.20606) rotate(-24 -3.857 -5.76)" stroke-width=".003"/>
  <circle r=".5" stroke="#000" fill="none" transform="scale(244.20606 -244.20606) rotate(36 3.396 2.563)" stroke-width=".003"/>
  <circle r=".5" stroke="#000" fill="none" transform="scale(236.87987 -236.87987) rotate(-81 -.614 -2.044)" stroke-width=".003"/>
  <circle r=".5" stroke="#000" fill="none" transform="scale(-236.87988 236.87988) rotate(-21 2.85 3.832)" stroke-width=".003"/>
  <circle r=".5" stroke="#000" fill="none" transform="scale(-236.87988 236.87988) rotate(39 -3.194 -.518)" stroke-width=".003"/>
  <circle r=".5" stroke="#000" fill="none" transform="scale(-236.87987 236.87987) rotate(-81 -.256 1.596)" stroke-width=".003"/>
  <circle r=".5" stroke="#000" fill="none" transform="scale(236.87988 -236.87988) rotate(-21 -4.74 -6.763)" stroke-width=".003"/>
  <circle r=".5" stroke="#000" fill="none" transform="scale(236.87988 -236.87988) rotate(39 3.287 2.42)" stroke-width=".003"/>
  <circle r=".5" stroke="#000" fill="none" transform="scale(229.77348 -229.77348) rotate(-78 -.732 -2.18)" stroke-width=".003"/>
  <circle r=".5" stroke="#000" fill="none" transform="scale(-229.77348 229.77348) rotate(-18 3.516 4.382)" stroke-width=".003"/>
  <circle r=".5" stroke="#000" fill="none" transform="scale(-229.77348 229.77348) rotate(-78 -.25 1.68)" stroke-width=".003"/>
  <circle r=".5" stroke="#000" fill="none" transform="scale(-229.77348 229.77348) rotate(42 -3.097 -.362)" stroke-width=".003"/>
  <circle r=".5" stroke="#000" fill="none" transform="scale(229.77348 -229.77348) rotate(-18 -5.93 -8.1)" stroke-width=".003"/>
  <circle r=".5" stroke="#000" fill="none" transform="scale(229.77348 -229.77348) rotate(42 3.198 2.295)" stroke-width=".003"/>
  <circle r=".5" stroke="#000" fill="none" transform="scale(222.88028 -222.88028) rotate(-75 -.863 -2.328)" stroke-width=".003"/>
  <circle r=".5" stroke="#000" fill="none" transform="scale(-222.88028 222.88028) rotate(-15 4.455 5.143)" stroke-width=".003"/>
  <circle r=".5" stroke="#000" fill="none" transform="scale(-222.88028 222.88028) rotate(45 -3.016 -.22)" stroke-width=".003"/>
  <circle r=".5" stroke="#000" fill="none" transform="scale(-222.88028 222.88028) rotate(-75 -.241 1.771)" stroke-width=".003"/>
  <circle r=".5" stroke="#000" fill="none" transform="scale(222.88028 -222.88028) rotate(-15 -7.615 -9.968)" stroke-width=".003"/>
  <circle r=".5" stroke="#000" fill="none" transform="scale(222.88028 -222.88028) rotate(45 3.126 2.185)" stroke-width=".003"/>
  <circle r=".5" stroke="#000" fill="none" transform="scale(216.19387 -216.19387) rotate(-72 -1.008 -2.488)" stroke-width=".003"/>
  <circle r=".5" stroke="#000" fill="none" transform="scale(-216.19386 216.19386) rotate(-12 5.876 6.273)" stroke-width=".003"/>
  <circle r=".5" stroke="#000" fill="none" transform="scale(-216.19387 216.19387) rotate(-72 -.23 1.87)" stroke-width=".003"/>
  <circle r=".5" stroke="#000" fill="none" transform="scale(-216.19387 216.19387) rotate(48 -2.948 -.09)" stroke-width=".003"/>
  <circle r=".5" stroke="#000" fill="none" transform="scale(216.19386 -216.19386) rotate(-12 -10.166 -12.766)" stroke-width=".003"/>
  <circle r=".5" stroke="#000" fill="none" transform="scale(216.19387 -216.19387) rotate(48 3.069 2.086)" stroke-width=".003"/>
  <circle r=".5" stroke="#000" fill="none" transform="scale(209.70805 -209.70805) rotate(-69 -1.17 -2.662)" stroke-width=".003"/>
  <circle r=".5" stroke="#000" fill="none" transform="scale(-209.70805 209.70805) rotate(-9 8.258 8.141)" stroke-width=".003"/>
  <circle r=".5" stroke="#000" fill="none" transform="scale(-209.70805 209.70805) rotate(51 -2.891 .032)" stroke-width=".003"/>
  <circle r=".5" stroke="#000" fill="none" transform="scale(209.70805 -209.70805) rotate(-9 -14.451 -17.422)" stroke-width=".003"/>
  <circle r=".5" stroke="#000" fill="none" transform="scale(-209.70805 209.70805) rotate(-69 -.216 1.978)" stroke-width=".003"/>
  <circle r=".5" stroke="#000" fill="none" transform="scale(209.70805 -209.70805) rotate(51 3.023 1.997)" stroke-width=".003"/>
  <circle r=".5" stroke="#000" fill="none" transform="scale(203.4168 -203.4168) rotate(-66 -1.35 -2.85)" stroke-width=".003"/>
  <circle r=".5" stroke="#000" fill="none" transform="scale(-203.4168 203.4168) rotate(-6 13.047 11.852)" stroke-width=".003"/>
  <circle r=".5" stroke="#000" fill="none" transform="scale(203.4168 -203.4168) rotate(-6 -23.073 -26.724)" stroke-width=".003"/>
  <circle r=".5" stroke="#000" fill="none" transform="scale(-203.4168 203.4168) rotate(-66 -.198 2.095)" stroke-width=".003"/>
  <circle r=".5" stroke="#000" fill="none" transform="scale(-203.41681 203.41681) rotate(54 -2.843 .147)" stroke-width=".003"/>
  <circle r=".5" stroke="#000" fill="none" transform="scale(203.41681 -203.41681) rotate(54 2.987 1.916)" stroke-width=".003"/>
  <circle r=".5" stroke="#000" fill="none" transform="scale(-197.3143 197.3143) rotate(-3 27.461 22.932)" stroke-width=".003"/>
  <circle r=".5" stroke="#000" fill="none" transform="scale(197.31431 -197.31431) rotate(-63 -1.553 -3.057)" stroke-width=".003"/>
  <circle r=".5" stroke="#000" fill="none" transform="scale(197.3143 -197.3143) rotate(-3 -49.043 -54.604)" stroke-width=".003"/>
  <circle r=".5" stroke="#000" fill="none" transform="scale(-197.31431 197.31431) rotate(-63 -.176 2.223)" stroke-width=".003"/>
  <circle r=".5" stroke="#000" fill="none" transform="scale(-197.3143 197.3143) rotate(57 -2.802 .256)" stroke-width=".003"/>
  <circle r=".5" stroke="#000" fill="none" transform="scale(197.3143 -197.3143) rotate(57 2.96 1.841)" stroke-width=".003"/>
  <circle r=".5" stroke="#000" fill="none" transform="scale(191.39488 -191.39488) rotate(-60 -1.782 -3.283)" stroke-width=".003"/>
  <circle r=".5" stroke="#000" fill="none" transform="matrix(-191.39488 0 0 191.39488 221.501 289.368)" stroke-width=".003"/>
  <circle r=".5" stroke="#000" fill="none" transform="scale(-191.39488 191.39488) rotate(-60 -.15 2.365)" stroke-width=".003"/>
  <circle r=".5" stroke="#000" fill="none" transform="scale(-191.39488 191.39488) rotate(60 -2.768 .36)" stroke-width=".003"/>
  <circle r=".5" stroke="#000" fill="none" transform="matrix(191.39488 0 0 -191.39488 558.499 521.631)" stroke-width=".003"/>
  <circle r=".5" stroke="#000" fill="none" transform="scale(191.39488 -191.39488) rotate(60 2.939 1.771)" stroke-width=".003"/>
  <circle r=".5" stroke="#000" fill="none" transform="scale(185.65303 -185.65303) rotate(-57 -2.04 -3.532)" stroke-width=".003"/>
  <circle r=".5" stroke="#000" fill="none" transform="scale(-185.65303 185.65303) rotate(3 -30.337 -21.214)" stroke-width=".003"/>
  <circle r=".5" stroke="#000" fill="none" transform="scale(-185.65303 185.65303) rotate(63 -2.74 .462)" stroke-width=".003"/>
  <circle r=".5" stroke="#000" fill="none" transform="scale(-185.65303 185.65303) rotate(-57 -.117 2.521)" stroke-width=".003"/>
  <circle r=".5" stroke="#000" fill="none" transform="scale(185.65303 -185.65303) rotate(3 55.174 56.824)" stroke-width=".003"/>
  <circle r=".5" stroke="#000" fill="none" transform="scale(185.65303 -185.65303) rotate(63 2.925 1.705)" stroke-width=".003"/>
  <circle r=".5" stroke="#000" fill="none" transform="scale(180.08344 -180.08344) rotate(-54 -2.332 -3.807)" stroke-width=".003"/>
  <circle r=".5" stroke="#000" fill="none" transform="scale(-180.08344 180.08344) rotate(6 -15.924 -10.132)" stroke-width=".003"/>
  <circle r=".5" stroke="#000" fill="none" transform="scale(-180.08344 180.08344) rotate(66 -2.716 .56)" stroke-width=".003"/>
  <circle r=".5" stroke="#000" fill="none" transform="scale(-180.08344 180.08344) rotate(-54 -.078 2.695)" stroke-width=".003"/>
  <circle r=".5" stroke="#000" fill="none" transform="scale(180.08344 -180.08344) rotate(6 29.207 28.94)" stroke-width=".003"/>
  <circle r=".5" stroke="#000" fill="none" transform="scale(180.08344 -180.08344) rotate(66 2.917 1.643)" stroke-width=".003"/>
  <circle r=".5" stroke="#000" fill="none" transform="scale(174.68094 -174.68094) rotate(-51 -2.665 -4.113)" stroke-width=".004"/>
  <circle r=".5" stroke="#000" fill="none" transform="scale(-174.68094 174.68094) rotate(9 -11.136 -6.416)" stroke-width=".004"/>
  <circle r=".5" stroke="#000" fill="none" transform="scale(-174.68094 174.68094) rotate(-51 -.031 2.889)" stroke-width=".004"/>
  <circle r=".5" stroke="#000" fill="none" transform="scale(-174.68093 174.68093) rotate(69 -2.696 .657)" stroke-width=".004"/>
  <circle r=".5" stroke="#000" fill="none" transform="scale(174.68094 -174.68094) rotate(9 20.592 19.631)" stroke-width=".004"/>
  <circle r=".5" stroke="#000" fill="none" transform="scale(174.68093 -174.68093) rotate(69 2.915 1.584)" stroke-width=".004"/>
  <circle r=".5" stroke="#000" fill="none" transform="scale(169.44051 -169.44051) rotate(-48 -3.048 -4.456)" stroke-width=".004"/>
  <circle r=".5" stroke="#000" fill="none" transform="scale(-169.44051 169.44051) rotate(-48 .025 3.107)" stroke-width=".004"/>
  <circle r=".5" stroke="#000" fill="none" transform="scale(-169.44051 169.44051) rotate(12 -8.755 -4.54)" stroke-width=".004"/>
  <circle r=".5" stroke="#000" fill="none" transform="scale(-169.4405 169.4405) rotate(72 -2.679 .752)" stroke-width=".004"/>
  <circle r=".5" stroke="#000" fill="none" transform="scale(169.44051 -169.44051) rotate(12 16.317 14.966)" stroke-width=".004"/>
  <circle r=".5" stroke="#000" fill="none" transform="scale(169.4405 -169.4405) rotate(72 2.917 1.526)" stroke-width=".004"/>
  <circle r=".5" stroke="#000" fill="none" transform="scale(164.3573 -164.3573) rotate(-45 -3.49 -4.842)" stroke-width=".004"/>
  <circle r=".5" stroke="#000" fill="none" transform="scale(-164.3573 164.3573) rotate(-45 .094 3.354)" stroke-width=".004"/>
  <circle r=".5" stroke="#000" fill="none" transform="scale(-164.3573 164.3573) rotate(15 -7.336 -3.4)" stroke-width=".004"/>
  <circle r=".5" stroke="#000" fill="none" transform="scale(-164.3573 164.3573) rotate(75 -2.665 .846)" stroke-width=".004"/>
  <circle r=".5" stroke="#000" fill="none" transform="scale(164.3573 -164.3573) rotate(15 13.777 12.156)" stroke-width=".004"/>
  <circle r=".5" stroke="#000" fill="none" transform="scale(164.3573 -164.3573) rotate(75 2.923 1.47)" stroke-width=".004"/>
  <circle r=".5" stroke="#000" fill="none" transform="scale(159.42657 -159.42657) rotate(-42 -4.003 -5.28)" stroke-width=".004"/>
  <circle r=".5" stroke="#000" fill="none" transform="scale(-159.42657 159.42657) rotate(-42 .176 3.636)" stroke-width=".004"/>
  <circle r=".5" stroke="#000" fill="none" transform="scale(-159.42657 159.42657) rotate(18 -6.398 -2.628)" stroke-width=".004"/>
  <circle r=".5" stroke="#000" fill="none" transform="scale(-159.42657 159.42657) rotate(78 -2.654 .94)" stroke-width=".004"/>
  <circle r=".5" stroke="#000" fill="none" transform="scale(159.42657 -159.42657) rotate(18 12.107 10.274)" stroke-width=".004"/>
  <circle r=".5" stroke="#000" fill="none" transform="scale(159.42657 -159.42657) rotate(78 2.933 1.416)" stroke-width=".004"/>
  <circle r=".5" stroke="#000" fill="none" transform="scale(154.64378 -154.64378) rotate(-39 -4.606 -5.783)" stroke-width=".004"/>
  <circle r=".5" stroke="#000" fill="none" transform="scale(-154.64377 154.64377) rotate(21 -5.736 -2.064)" stroke-width=".004"/>
  <circle r=".5" stroke="#000" fill="none" transform="scale(-154.64378 154.64378) rotate(-39 .277 3.96)" stroke-width=".004"/>
  <circle r=".5" stroke="#000" fill="none" transform="scale(-154.64378 154.64378) rotate(81 -2.645 1.032)" stroke-width=".004"/>
  <circle r=".5" stroke="#000" fill="none" transform="scale(154.64377 -154.64377) rotate(21 10.934 8.92)" stroke-width=".004"/>
  <circle r=".5" stroke="#000" fill="none" transform="scale(154.64378 -154.64378) rotate(81 2.947 1.363)" stroke-width=".004"/>
  <circle r=".5" stroke="#000" fill="none" transform="scale(150.00446 -150.00446) rotate(-36 -5.32 -6.366)" stroke-width=".004"/>
  <circle r=".5" stroke="#000" fill="none" transform="scale(-150.00446 150.00446) rotate(-36 .4 4.339)" stroke-width=".004"/>
  <circle r=".5" stroke="#000" fill="none" transform="scale(-150.00447 150.00447) rotate(24 -5.246 -1.631)" stroke-width=".004"/>
  <circle r=".5" stroke="#000" fill="none" transform="scale(-150.00446 150.00446) rotate(84 -2.639 1.126)" stroke-width=".004"/>
  <circle r=".5" stroke="#000" fill="none" transform="scale(150.00447 -150.00447) rotate(24 10.072 7.897)" stroke-width=".004"/>
  <circle r=".5" stroke="#000" fill="none" transform="scale(150.00446 -150.00446) rotate(84 2.964 1.31)" stroke-width=".004"/>
  <circle r=".5" stroke="#000" fill="none" transform="scale(145.50433 -145.50433) rotate(-33 -6.176 -7.05)" stroke-width=".004"/>
  <circle r=".5" stroke="#000" fill="none" transform="scale(-145.50433 145.50433) rotate(27 -4.87 -1.284)" stroke-width=".004"/>
  <circle r=".5" stroke="#000" fill="none" transform="scale(-145.50433 145.50433) rotate(-33 .551 4.785)" stroke-width=".004"/>
  <circle r=".5" stroke="#000" fill="none" transform="scale(-145.50433 145.50433) rotate(87 -2.633 1.22)" stroke-width=".004"/>
  <circle r=".5" stroke="#000" fill="none" transform="scale(145.50433 -145.50433) rotate(27 9.418 7.093)" stroke-width=".004"/>
  <circle r=".5" stroke="#000" fill="none" transform="scale(145.50433 -145.50433) rotate(87 2.984 1.258)" stroke-width=".004"/>
  <circle r=".5" stroke="#000" fill="none" transform="scale(141.1392 -141.1392) rotate(-30 -7.218 -7.867)" stroke-width=".004"/>
  <circle r=".5" stroke="#000" fill="none" transform="scale(-141.1392 141.1392) rotate(-30 .74 5.319)" stroke-width=".004"/>
  <circle r=".5" stroke="#000" fill="none" transform="scale(-141.1392 141.1392) rotate(30 -4.575 -.997)" stroke-width=".004"/>
  <circle r=".5" stroke="#000" fill="none" transform="matrix(0 141.1392 141.1392 0 185.523 556.632)" stroke-width=".004"/>
  <circle r=".5" stroke="#000" fill="none" transform="scale(141.1392 -141.1392) rotate(30 8.91 6.442)" stroke-width=".004"/>
  <circle r=".5" stroke="#000" fill="none" transform="matrix(0 -141.1392 -141.1392 0 594.477 254.368)" stroke-width=".004"/>
  <circle r=".5" stroke="#000" fill="none" transform="scale(136.90502 -136.90502) rotate(-27 -8.508 -8.857)" stroke-width=".005"/>
  <circle r=".5" stroke="#000" fill="none" transform="scale(-136.90502 136.90502) rotate(-27 .98 5.97)" stroke-width=".005"/>
  <circle r=".5" stroke="#000" fill="none" transform="scale(-136.90502 136.90502) rotate(33 -4.338 -.753)" stroke-width=".005"/>
  <circle r=".5" stroke="#000" fill="none" transform="scale(136.90502 -136.90502) rotate(-87 -1.486 -2.768)" stroke-width=".005"/>
  <circle r=".5" stroke="#000" fill="none" transform="scale(136.90502 -136.90502) rotate(33 8.51 5.902)" stroke-width=".005"/>
  <circle r=".5" stroke="#000" fill="none" transform="scale(-136.90502 136.90502) rotate(-87 -1.214 3.196)" stroke-width=".005"/>
  <circle r=".5" stroke="#000" fill="none" transform="scale(132.79787 -132.79787) rotate(-24 -10.14 -10.087)" stroke-width=".005"/>
  <circle r=".5" stroke="#000" fill="none" transform="scale(-132.79787 132.79787) rotate(-24 1.29 6.783)" stroke-width=".005"/>
  <circle r=".5" stroke="#000" fill="none" transform="scale(-132.79788 132.79788) rotate(36 -4.145 -.542)" stroke-width=".005"/>
  <circle r=".5" stroke="#000" fill="none" transform="scale(132.79788 -132.79788) rotate(36 8.19 5.443)" stroke-width=".005"/>
  <circle r=".5" stroke="#000" fill="none" transform="scale(132.79787 -132.79787) rotate(-84 -1.674 -2.915)" stroke-width=".005"/>
  <circle r=".5" stroke="#000" fill="none" transform="scale(-132.79787 132.79787) rotate(-84 -1.22 3.4)" stroke-width=".005"/>
  <circle r=".5" stroke="#000" fill="none" transform="scale(128.81394 -128.81394) rotate(-21 -12.258 -11.658)" stroke-width=".005"/>
  <circle r=".5" stroke="#000" fill="none" transform="scale(-128.81394 128.81394) rotate(39 -3.985 -.354)" stroke-width=".005"/>
  <circle r=".5" stroke="#000" fill="none" transform="scale(-128.81394 128.81394) rotate(-21 1.699 7.826)" stroke-width=".005"/>
  <circle r=".5" stroke="#000" fill="none" transform="scale(128.81394 -128.81394) rotate(39 7.932 5.048)" stroke-width=".005"/>
  <circle r=".5" stroke="#000" fill="none" transform="scale(128.81393 -128.81393) rotate(-81 -1.88 -3.071)" stroke-width=".005"/>
  <circle r=".5" stroke="#000" fill="none" transform="scale(-128.81393 128.81393) rotate(-81 -1.223 3.622)" stroke-width=".005"/>
  <circle r=".5" stroke="#000" fill="none" transform="scale(124.94952 -124.94952) rotate(-18 -15.11 -13.74)" stroke-width=".005"/>
  <circle r=".5" stroke="#000" fill="none" transform="scale(-124.94952 124.94952) rotate(42 -3.852 -.185)" stroke-width=".005"/>
  <circle r=".5" stroke="#000" fill="none" transform="scale(-124.94952 124.94952) rotate(-18 2.258 9.213)" stroke-width=".005"/>
  <circle r=".5" stroke="#000" fill="none" transform="scale(124.94952 -124.94952) rotate(42 7.723 4.701)" stroke-width=".005"/>
  <circle r=".5" stroke="#000" fill="none" transform="scale(124.94952 -124.94952) rotate(-78 -2.108 -3.238)" stroke-width=".005"/>
  <circle r=".5" stroke="#000" fill="none" transform="scale(-124.94952 124.94952) rotate(-78 -1.221 3.861)" stroke-width=".005"/>
  <circle r=".5" stroke="#000" fill="none" transform="scale(121.20104 -121.20104) rotate(-15 -19.137 -16.636)" stroke-width=".005"/>
  <circle r=".5" stroke="#000" fill="none" transform="scale(-121.20104 121.20104) rotate(-15 3.058 11.151)" stroke-width=".005"/>
  <circle r=".5" stroke="#000" fill="none" transform="scale(121.20104 -121.20104) rotate(-75 -2.358 -3.417)" stroke-width=".005"/>
  <circle r=".5" stroke="#000" fill="none" transform="scale(-121.20103 121.20103) rotate(45 -3.74 -.03)" stroke-width=".005"/>
  <circle r=".5" stroke="#000" fill="none" transform="scale(121.20103 -121.20103) rotate(45 7.554 4.392)" stroke-width=".005"/>
  <circle r=".5" stroke="#000" fill="none" transform="scale(-121.20104 121.20104) rotate(-75 -1.216 4.122)" stroke-width=".005"/>
  <circle r=".5" stroke="#000" fill="none" transform="scale(117.565 -117.565) rotate(-12 -25.218 -20.959)" stroke-width=".005"/>
  <circle r=".5" stroke="#000" fill="none" transform="scale(-117.565 117.565) rotate(-12 4.28 14.052)" stroke-width=".005"/>
  <circle r=".5" stroke="#000" fill="none" transform="scale(-117.565 117.565) rotate(48 -3.646 .113)" stroke-width=".005"/>
  <circle r=".5" stroke="#000" fill="none" transform="scale(117.565 -117.565) rotate(-72 -2.634 -3.608)" stroke-width=".005"/>
  <circle r=".5" stroke="#000" fill="none" transform="scale(117.565 -117.565) rotate(48 7.418 4.115)" stroke-width=".005"/>
  <circle r=".5" stroke="#000" fill="none" transform="scale(-117.565 117.565) rotate(-72 -1.204 4.407)" stroke-width=".005"/>
  <circle r=".5" stroke="#000" fill="none" transform="scale(114.03806 -114.03806) rotate(-9 -35.413 -28.13)" stroke-width=".005"/>
  <circle r=".5" stroke="#000" fill="none" transform="scale(-114.03806 114.03806) rotate(-9 6.348 18.88)" stroke-width=".005"/>
  <circle r=".5" stroke="#000" fill="none" transform="scale(114.03805 -114.03805) rotate(-69 -2.94 -3.814)" stroke-width=".005"/>
  <circle r=".5" stroke="#000" fill="none" transform="scale(114.03805 -114.03805) rotate(51 7.31 3.861)" stroke-width=".005"/>
  <circle r=".5" stroke="#000" fill="none" transform="scale(-114.03805 114.03805) rotate(51 -3.565 .247)" stroke-width=".005"/>
  <circle r=".5" stroke="#000" fill="none" transform="scale(-114.03805 114.03805) rotate(-69 -1.187 4.718)" stroke-width=".005"/>
  <circle r=".5" stroke="#000" fill="none" transform="scale(110.61691 -110.61691) rotate(-6 -55.891 -42.42)" stroke-width=".006"/>
  <circle r=".5" stroke="#000" fill="none" transform="scale(-110.61691 110.61691) rotate(-6 10.53 28.52)" stroke-width=".006"/>
  <circle r=".5" stroke="#000" fill="none" transform="scale(110.61691 -110.61691) rotate(-66 -3.28 -4.036)" stroke-width=".006"/>
  <circle r=".5" stroke="#000" fill="none" transform="scale(-110.61691 110.61691) rotate(54 -3.496 .374)" stroke-width=".006"/>
  <circle r=".5" stroke="#000" fill="none" transform="scale(110.61691 -110.61691) rotate(54 7.224 3.628)" stroke-width=".006"/>
  <circle r=".5" stroke="#000" fill="none" transform="scale(-110.61691 110.61691) rotate(-66 -1.162 5.059)" stroke-width=".006"/>
  <circle r=".5" stroke="#000" fill="none" transform="scale(107.2984 -107.2984) rotate(-3 -117.511 -85.174)" stroke-width=".006"/>
  <circle r=".5" stroke="#000" fill="none" transform="scale(107.2984 -107.2984) rotate(-63 -3.66 -4.276)" stroke-width=".006"/>
  <circle r=".5" stroke="#000" fill="none" transform="scale(-107.2984 107.2984) rotate(-3 23.175 57.41)" stroke-width=".006"/>
  <circle r=".5" stroke="#000" fill="none" transform="scale(107.2984 -107.2984) rotate(57 7.158 3.41)" stroke-width=".006"/>
  <circle r=".5" stroke="#000" fill="none" transform="scale(-107.2984 107.2984) rotate(57 -3.437 .496)" stroke-width=".006"/>
  <circle r=".5" stroke="#000" fill="none" transform="scale(-107.2984 107.2984) rotate(-63 -1.128 5.435)" stroke-width=".006"/>
  <circle r=".5" stroke="#000" fill="none" transform="matrix(104.07945 0 0 -104.07945 465.305 672.642)" stroke-width=".006"/>
  <circle r=".5" stroke="#000" fill="none" transform="scale(104.07945 -104.07945) rotate(-60 -4.085 -4.536)" stroke-width=".006"/>
  <circle r=".5" stroke="#000" fill="none" transform="scale(-104.07945 104.07945) rotate(60 -3.387 .613)" stroke-width=".006"/>
  <circle r=".5" stroke="#000" fill="none" transform="matrix(-104.07945 0 0 104.07945 314.695 138.358)" stroke-width=".006"/>
  <circle r=".5" stroke="#000" fill="none" transform="scale(104.07945 -104.07945) rotate(60 7.109 3.207)" stroke-width=".006"/>
  <circle r=".5" stroke="#000" fill="none" transform="scale(-104.07945 104.07945) rotate(-60 -1.084 5.85)" stroke-width=".006"/>
  <circle r=".5" stroke="#000" fill="none" transform="scale(100.95707 -100.95707) rotate(3 129.543 85.46)" stroke-width=".006"/>
  <circle r=".5" stroke="#000" fill="none" transform="scale(-100.95707 100.95707) rotate(63 -3.343 .727)" stroke-width=".006"/>
  <circle r=".5" stroke="#000" fill="none" transform="scale(100.95707 -100.95707) rotate(-57 -4.562 -4.82)" stroke-width=".006"/>
  <circle r=".5" stroke="#000" fill="none" transform="scale(100.95707 -100.95707) rotate(63 7.075 3.014)" stroke-width=".006"/>
  <circle r=".5" stroke="#000" fill="none" transform="scale(-100.95707 100.95707) rotate(3 -27.706 -58.046)" stroke-width=".006"/>
  <circle r=".5" stroke="#000" fill="none" transform="scale(-100.95707 100.95707) rotate(-57 -1.028 6.311)" stroke-width=".006"/>
  <circle r=".5" stroke="#000" fill="none" transform="scale(97.92836 -97.92836) rotate(6 67.928 42.697)" stroke-width=".006"/>
  <circle r=".5" stroke="#000" fill="none" transform="scale(-97.92836 97.92836) rotate(66 -3.305 .838)" stroke-width=".006"/>
  <circle r=".5" stroke="#000" fill="none" transform="scale(97.92836 -97.92836) rotate(-54 -5.101 -5.131)" stroke-width=".006"/>
  <circle r=".5" stroke="#000" fill="none" transform="scale(97.92836 -97.92836) rotate(66 7.054 2.83)" stroke-width=".006"/>
  <circle r=".5" stroke="#000" fill="none" transform="scale(-97.92836 97.92836) rotate(6 -15.065 -29.153)" stroke-width=".006"/>
  <circle r=".5" stroke="#000" fill="none" transform="scale(-97.92836 97.92836) rotate(-54 -.957 6.826)" stroke-width=".006"/>
  <circle r=".5" stroke="#000" fill="none" transform="scale(94.9905 -94.9905) rotate(9 47.459 28.392)" stroke-width=".007"/>
  <circle r=".5" stroke="#000" fill="none" transform="scale(-94.9905 94.9905) rotate(69 -3.273 .947)" stroke-width=".007"/>
  <circle r=".5" stroke="#000" fill="none" transform="scale(94.9905 -94.9905) rotate(69 7.044 2.652)" stroke-width=".007"/>
  <circle r=".5" stroke="#000" fill="none" transform="scale(94.9905 -94.9905) rotate(-51 -5.713 -5.473)" stroke-width=".007"/>
  <circle r=".5" stroke="#000" fill="none" transform="scale(-94.9905 94.9905) rotate(9 -10.888 -19.507)" stroke-width=".007"/>
  <circle r=".5" stroke="#000" fill="none" transform="scale(-94.9905 94.9905) rotate(-51 -.869 7.403)" stroke-width=".007"/>
  <circle r=".5" stroke="#000" fill="none" transform="scale(92.14079 -92.14079) rotate(12 37.276 21.198)" stroke-width=".007"/>
  <circle r=".5" stroke="#000" fill="none" transform="scale(92.1408 -92.1408) rotate(-48 -6.411 -5.852)" stroke-width=".007"/>
  <circle r=".5" stroke="#000" fill="none" transform="scale(-92.14079 92.14079) rotate(12 -8.828 -14.672)" stroke-width=".007"/>
  <circle r=".5" stroke="#000" fill="none" transform="scale(92.14079 -92.14079) rotate(72 7.046 2.48)" stroke-width=".007"/>
  <circle r=".5" stroke="#000" fill="none" transform="scale(-92.14079 92.14079) rotate(72 -3.244 1.055)" stroke-width=".007"/>
  <circle r=".5" stroke="#000" fill="none" transform="scale(-92.1408 92.1408) rotate(-48 -.76 8.055)" stroke-width=".007"/>
  <circle r=".5" stroke="#000" fill="none" transform="scale(89.37657 -89.37657) rotate(15 31.21 16.847)" stroke-width=".007"/>
  <circle r=".5" stroke="#000" fill="none" transform="scale(-89.37657 89.37657) rotate(75 -3.22 1.162)" stroke-width=".007"/>
  <circle r=".5" stroke="#000" fill="none" transform="scale(-89.37657 89.37657) rotate(15 -7.615 -11.76)" stroke-width=".007"/>
  <circle r=".5" stroke="#000" fill="none" transform="scale(89.37657 -89.37657) rotate(-45 -7.213 -6.275)" stroke-width=".007"/>
  <circle r=".5" stroke="#000" fill="none" transform="scale(89.37657 -89.37657) rotate(75 7.056 2.312)" stroke-width=".007"/>
  <circle r=".5" stroke="#000" fill="none" transform="scale(-89.37657 89.37657) rotate(-45 -.624 8.797)" stroke-width=".007"/>
  <circle r=".5" stroke="#000" fill="none" transform="scale(86.69527 -86.69527) rotate(18 27.203 13.915)" stroke-width=".007"/>
  <circle r=".5" stroke="#000" fill="none" transform="scale(86.69527 -86.69527) rotate(-42 -8.143 -6.75)" stroke-width=".007"/>
  <circle r=".5" stroke="#000" fill="none" transform="scale(-86.69527 86.69527) rotate(78 -3.2 1.27)" stroke-width=".007"/>
  <circle r=".5" stroke="#000" fill="none" transform="scale(-86.69527 86.69527) rotate(18 -6.827 -9.81)" stroke-width=".007"/>
  <circle r=".5" stroke="#000" fill="none" transform="scale(86.69527 -86.69527) rotate(78 7.075 2.147)" stroke-width=".007"/>
  <circle r=".5" stroke="#000" fill="none" transform="scale(-86.69527 86.69527) rotate(-42 -.456 9.646)" stroke-width=".007"/>
  <circle r=".5" stroke="#000" fill="none" transform="scale(84.09441 -84.09441) rotate(21 24.373 11.792)" stroke-width=".007"/>
  <circle r=".5" stroke="#000" fill="none" transform="scale(84.09441 -84.09441) rotate(-39 -9.228 -7.29)" stroke-width=".007"/>
  <circle r=".5" stroke="#000" fill="none" transform="scale(-84.09441 84.09441) rotate(21 -6.281 -8.409)" stroke-width=".007"/>
  <circle r=".5" stroke="#000" fill="none" transform="scale(-84.09441 84.09441) rotate(81 -3.18 1.376)" stroke-width=".007"/>
  <circle r=".5" stroke="#000" fill="none" transform="scale(84.09441 -84.09441) rotate(81 7.103 1.984)" stroke-width=".007"/>
  <circle r=".5" stroke="#000" fill="none" transform="scale(-84.09441 84.09441) rotate(-39 -.249 10.629)" stroke-width=".007"/>
  <circle r=".5" stroke="#000" fill="none" transform="scale(81.57158 -81.57158) rotate(24 22.28 10.173)" stroke-width=".008"/>
  <circle r=".5" stroke="#000" fill="none" transform="scale(-81.57158 81.57158) rotate(24 -5.888 -7.349)" stroke-width=".008"/>
  <circle r=".5" stroke="#000" fill="none" transform="scale(81.57158 -81.57158) rotate(-36 -10.51 -7.909)" stroke-width=".008"/>
  <circle r=".5" stroke="#000" fill="none" transform="scale(-81.57158 81.57158) rotate(84 -3.165 1.484)" stroke-width=".008"/>
  <circle r=".5" stroke="#000" fill="none" transform="scale(81.57158 -81.57158) rotate(84 7.137 1.823)" stroke-width=".008"/>
  <circle r=".5" stroke="#000" fill="none" transform="scale(-81.57158 81.57158) rotate(-36 .009 11.777)" stroke-width=".008"/>
  <circle r=".5" stroke="#000" fill="none" transform="scale(79.12443 -79.12443) rotate(27 20.678 8.889)" stroke-width=".008"/>
  <circle r=".5" stroke="#000" fill="none" transform="scale(79.12443 -79.12443) rotate(-33 -12.04 -8.628)" stroke-width=".008"/>
  <circle r=".5" stroke="#000" fill="none" transform="scale(-79.12443 79.12443) rotate(27 -5.597 -6.517)" stroke-width=".008"/>
  <circle r=".5" stroke="#000" fill="none" transform="scale(-79.12443 79.12443) rotate(87 -3.151 1.592)" stroke-width=".008"/>
  <circle r=".5" stroke="#000" fill="none" transform="scale(79.12443 -79.12443) rotate(87 7.178 1.661)" stroke-width=".008"/>
  <circle r=".5" stroke="#000" fill="none" transform="scale(-79.12443 79.12443) rotate(-33 .331 13.137)" stroke-width=".008"/>
  <circle r=".5" stroke="#000" fill="none" transform="scale(76.7507 -76.7507) rotate(30 19.42 7.837)" stroke-width=".008"/>
  <circle r=".5" stroke="#000" fill="none" transform="scale(76.7507 -76.7507) rotate(-30 -13.897 -9.476)" stroke-width=".008"/>
  <circle r=".5" stroke="#000" fill="none" transform="scale(-76.7507 76.7507) rotate(30 -5.378 -5.844)" stroke-width=".008"/>
  <circle r=".5" stroke="#000" fill="none" transform="matrix(0 76.7507 76.7507 0 110.308 371.553)" stroke-width=".008"/>
  <circle r=".5" stroke="#000" fill="none" transform="scale(76.7507 -76.7507) rotate(90 7.226 1.5)" stroke-width=".008"/>
  <circle r=".5" stroke="#000" fill="none" transform="scale(-76.7507 76.7507) rotate(-30 .74 14.771)" stroke-width=".008"/>
  <circle r=".5" stroke="#000" fill="none" transform="scale(74.44818 -74.44818) rotate(33 18.415 6.953)" stroke-width=".008"/>
  <circle r=".5" stroke="#000" fill="none" transform="scale(-74.44818 74.44818) rotate(33 -5.212 -5.285)" stroke-width=".008"/>
  <circle r=".5" stroke="#000" fill="none" transform="scale(74.44818 -74.44818) rotate(-27 -16.187 -10.496)" stroke-width=".008"/>
  <circle r=".5" stroke="#000" fill="none" transform="scale(74.44818 -74.44818) rotate(-87 -1.91 -3.297)" stroke-width=".008"/>
  <circle r=".5" stroke="#000" fill="none" transform="scale(-74.44818 74.44818) rotate(-87 -1.41 7.67)" stroke-width=".008"/>
  <circle r=".5" stroke="#000" fill="none" transform="scale(-74.44818 74.44818) rotate(-27 1.261 16.77)" stroke-width=".008"/>
  <circle r=".5" stroke="#000" fill="none" transform="scale(72.21473 -72.21473) rotate(36 17.598 6.194)" stroke-width=".009"/>
  <circle r=".5" stroke="#000" fill="none" transform="scale(72.21473 -72.21473) rotate(-24 -19.075 -11.751)" stroke-width=".009"/>
  <circle r=".5" stroke="#000" fill="none" transform="scale(-72.21473 72.21473) rotate(36 -5.085 -4.812)" stroke-width=".009"/>
  <circle r=".5" stroke="#000" fill="none" transform="scale(72.21473 -72.21473) rotate(-84 -2.139 -3.464)" stroke-width=".009"/>
  <circle r=".5" stroke="#000" fill="none" transform="scale(-72.21473 72.21473) rotate(-84 -1.303 8.15)" stroke-width=".009"/>
  <circle r=".5" stroke="#000" fill="none" transform="scale(-72.21473 72.21473) rotate(-24 1.942 19.272)" stroke-width=".009"/>
  <circle r=".5" stroke="#000" fill="none" transform="scale(70.0483 -70.0483) rotate(39 16.926 5.529)" stroke-width=".009"/>
  <circle r=".5" stroke="#000" fill="none" transform="scale(-70.0483 70.0483) rotate(39 -4.989 -4.405)" stroke-width=".009"/>
  <circle r=".5" stroke="#000" fill="none" transform="scale(70.0483 -70.0483) rotate(-81 -2.39 -3.641)" stroke-width=".009"/>
  <circle r=".5" stroke="#000" fill="none" transform="scale(70.04829 -70.04829) rotate(-21 -22.816 -13.34)" stroke-width=".009"/>
  <circle r=".5" stroke="#000" fill="none" transform="scale(-70.0483 70.0483) rotate(-81 -1.179 8.666)" stroke-width=".009"/>
  <circle r=".5" stroke="#000" fill="none" transform="scale(-70.04829 70.04829) rotate(-21 2.85 22.49)" stroke-width=".009"/>
  <circle r=".5" stroke="#000" fill="none" transform="scale(67.94684 -67.94684) rotate(42 16.37 4.936)" stroke-width=".009"/>
  <circle r=".5" stroke="#000" fill="none" transform="scale(-67.94684 67.94684) rotate(42 -4.918 -4.048)" stroke-width=".009"/>
  <circle r=".5" stroke="#000" fill="none" transform="scale(67.94684 -67.94684) rotate(-18 -27.838 -15.426)" stroke-width=".009"/>
  <circle r=".5" stroke="#000" fill="none" transform="scale(67.94684 -67.94684) rotate(-78 -2.664 -3.83)" stroke-width=".009"/>
  <circle r=".5" stroke="#000" fill="none" transform="scale(-67.94684 67.94684) rotate(-78 -1.034 9.225)" stroke-width=".009"/>
  <circle r=".5" stroke="#000" fill="none" transform="scale(-67.94684 67.94684) rotate(-18 4.102 26.781)" stroke-width=".009"/>
  <circle r=".5" stroke="#000" fill="none" transform="scale(65.90844 -65.90844) rotate(45 15.905 4.401)" stroke-width=".009"/>
  <circle r=".5" stroke="#000" fill="none" transform="scale(-65.90844 65.90844) rotate(45 -4.866 -3.732)" stroke-width=".009"/>
  <circle r=".5" stroke="#000" fill="none" transform="scale(65.90844 -65.90844) rotate(-75 -2.967 -4.033)" stroke-width=".009"/>
  <circle r=".5" stroke="#000" fill="none" transform="scale(65.90844 -65.90844) rotate(-15 -34.912 -18.308)" stroke-width=".009"/>
  <circle r=".5" stroke="#000" fill="none" transform="scale(-65.90844 65.90844) rotate(-75 -.867 9.832)" stroke-width=".009"/>
  <circle r=".5" stroke="#000" fill="none" transform="scale(-65.90844 65.90844) rotate(-15 5.904 32.79)" stroke-width=".009"/>
  <circle r=".5" stroke="#000" fill="none" transform="scale(63.93118 -63.93118) rotate(48 15.515 3.911)" stroke-width=".01"/>
  <circle r=".5" stroke="#000" fill="none" transform="scale(-63.93118 63.93118) rotate(48 -4.831 -3.448)" stroke-width=".01"/>
  <circle r=".5" stroke="#000" fill="none" transform="scale(63.93118 -63.93118) rotate(-72 -3.302 -4.248)" stroke-width=".01"/>
  <circle r=".5" stroke="#000" fill="none" transform="scale(63.93118 -63.93118) rotate(-12 -45.575 -22.58)" stroke-width=".01"/>
  <circle r=".5" stroke="#000" fill="none" transform="scale(-63.93118 63.93118) rotate(-72 -.672 10.49)" stroke-width=".01"/>
  <circle r=".5" stroke="#000" fill="none" transform="scale(-63.93118 63.93118) rotate(-12 8.672 41.804)" stroke-width=".01"/>
  <circle r=".5" stroke="#000" fill="none" transform="scale(62.01325 -62.01325) rotate(51 15.188 3.457)" stroke-width=".01"/>
  <circle r=".5" stroke="#000" fill="none" transform="scale(-62.01325 62.01325) rotate(51 -4.81 -3.19)" stroke-width=".01"/>
  <circle r=".5" stroke="#000" fill="none" transform="scale(62.01325 -62.01325) rotate(-9 -63.421 -29.623)" stroke-width=".01"/>
  <circle r=".5" stroke="#000" fill="none" transform="scale(62.01325 -62.01325) rotate(-69 -3.672 -4.48)" stroke-width=".01"/>
  <circle r=".5" stroke="#000" fill="none" transform="scale(-62.01325 62.01325) rotate(-69 -.447 11.21)" stroke-width=".01"/>
  <circle r=".5" stroke="#000" fill="none" transform="scale(-62.01325 62.01325) rotate(-9 13.375 56.825)" stroke-width=".01"/>
  <circle r=".5" stroke="#000" fill="none" transform="scale(60.15285 -60.15285) rotate(54 14.913 3.031)" stroke-width=".01"/>
  <circle r=".5" stroke="#000" fill="none" transform="scale(-60.15285 60.15285) rotate(54 -4.801 -2.952)" stroke-width=".01"/>
  <circle r=".5" stroke="#000" fill="none" transform="scale(60.15285 -60.15285) rotate(-6 -99.224 -43.593)" stroke-width=".01"/>
  <circle r=".5" stroke="#000" fill="none" transform="scale(60.15285 -60.15285) rotate(-66 -4.084 -4.73)" stroke-width=".01"/>
  <circle r=".5" stroke="#000" fill="none" transform="scale(-60.15285 60.15285) rotate(-66 -.187 11.996)" stroke-width=".01"/>
  <circle r=".5" stroke="#000" fill="none" transform="scale(-60.15285 60.15285) rotate(-6 22.921 86.86)" stroke-width=".01"/>
  <circle r=".5" stroke="#000" fill="none" transform="scale(58.34827 -58.34827) rotate(57 14.682 2.628)" stroke-width=".011"/>
  <circle r=".5" stroke="#000" fill="none" transform="scale(-58.34827 58.34827) rotate(57 -4.802 -2.733)" stroke-width=".011"/>
  <circle r=".5" stroke="#000" fill="none" transform="scale(58.34827 -58.34827) rotate(-3 -206.86 -85.253)" stroke-width=".011"/>
  <circle r=".5" stroke="#000" fill="none" transform="scale(58.34827 -58.34827) rotate(-63 -4.543 -4.998)" stroke-width=".011"/>
  <circle r=".5" stroke="#000" fill="none" transform="scale(-58.34827 58.34827) rotate(-63 .114 12.86)" stroke-width=".011"/>
  <circle r=".5" stroke="#000" fill="none" transform="scale(-58.34827 58.34827) rotate(-3 51.853 176.948)" stroke-width=".011"/>
  <circle r=".5" stroke="#000" fill="none" transform="scale(56.59782 -56.59782) rotate(60 14.488 2.243)" stroke-width=".011"/>
  <circle r=".5" stroke="#000" fill="none" transform="scale(-56.59782 56.59782) rotate(60 -4.812 -2.527)" stroke-width=".011"/>
  <circle r=".5" stroke="#000" fill="none" transform="matrix(56.59782 0 0 -56.59782 246.128 638.629)" stroke-width=".011"/>
  <circle r=".5" stroke="#000" fill="none" transform="scale(56.59782 -56.59782) rotate(-60 -5.056 -5.289)" stroke-width=".011"/>
  <circle r=".5" stroke="#000" fill="none" transform="scale(-56.59782 56.59782) rotate(-60 .463 13.81)" stroke-width=".011"/>
  <circle r=".5" stroke="#000" fill="none" transform="matrix(-56.59782 0 0 56.59782 533.872 172.371)" stroke-width=".011"/>
  <circle r=".5" stroke="#000" fill="none" transform="scale(54.89988 -54.89988) rotate(63 14.327 1.873)" stroke-width=".011"/>
  <circle r=".5" stroke="#000" fill="none" transform="scale(-54.89988 54.89988) rotate(63 -4.83 -2.333)" stroke-width=".011"/>
  <circle r=".5" stroke="#000" fill="none" transform="scale(54.89988 -54.89988) rotate(-57 -5.632 -5.605)" stroke-width=".011"/>
  <circle r=".5" stroke="#000" fill="none" transform="scale(54.89988 -54.89988) rotate(3 224.378 80.575)" stroke-width=".011"/>
  <circle r=".5" stroke="#000" fill="none" transform="scale(-54.89988 54.89988) rotate(-57 .868 14.864)" stroke-width=".011"/>
  <circle r=".5" stroke="#000" fill="none" transform="scale(-54.89988 54.89988) rotate(3 -64.793 -183.324)" stroke-width=".011"/>
  <circle r=".5" stroke="#000" fill="none" transform="scale(53.25289 -53.25289) rotate(66 14.195 1.514)" stroke-width=".012"/>
  <circle r=".5" stroke="#000" fill="none" transform="scale(-53.25289 53.25289) rotate(66 -4.854 -2.15)" stroke-width=".012"/>
  <circle r=".5" stroke="#000" fill="none" transform="scale(53.25289 -53.25289) rotate(-54 -6.282 -5.951)" stroke-width=".012"/>
  <circle r=".5" stroke="#000" fill="none" transform="scale(53.25289 -53.25289) rotate(6 116.746 38.899)" stroke-width=".012"/>
  <circle r=".5" stroke="#000" fill="none" transform="scale(-53.25289 53.25289) rotate(-54 1.34 16.037)" stroke-width=".012"/>
  <circle r=".5" stroke="#000" fill="none" transform="scale(-53.25289 53.25289) rotate(6 -35.873 -93.228)" stroke-width=".012"/>
  <circle r=".5" stroke="#000" fill="none" transform="scale(51.6553 -51.6553) rotate(69 14.087 1.163)" stroke-width=".012"/>
  <circle r=".5" stroke="#000" fill="none" transform="scale(-51.6553 51.6553) rotate(69 -4.885 -1.973)" stroke-width=".012"/>
  <circle r=".5" stroke="#000" fill="none" transform="scale(51.6553 -51.6553) rotate(-51 -7.02 -6.33)" stroke-width=".012"/>
  <circle r=".5" stroke="#000" fill="none" transform="scale(51.6553 -51.6553) rotate(9 80.95 24.902)" stroke-width=".012"/>
  <circle r=".5" stroke="#000" fill="none" transform="scale(-51.6553 51.6553) rotate(-51 1.889 17.348)" stroke-width=".012"/>
  <circle r=".5" stroke="#000" fill="none" transform="scale(-51.6553 51.6553) rotate(9 -26.346 -63.18)" stroke-width=".012"/>
  <circle r=".5" stroke="#000" fill="none" transform="scale(50.10564 -50.10564) rotate(72 14 .818)" stroke-width=".012"/>
  <circle r=".5" stroke="#000" fill="none" transform="scale(-50.10564 50.10564) rotate(72 -4.922 -1.803)" stroke-width=".012"/>
  <circle r=".5" stroke="#000" fill="none" transform="scale(50.10564 -50.10564) rotate(-48 -7.86 -6.75)" stroke-width=".012"/>
  <circle r=".5" stroke="#000" fill="none" transform="scale(50.10564 -50.10564) rotate(12 63.113 17.82)" stroke-width=".012"/>
  <circle r=".5" stroke="#000" fill="none" transform="scale(-50.10564 50.10564) rotate(-48 2.533 18.825)" stroke-width=".012"/>
  <circle r=".5" stroke="#000" fill="none" transform="scale(-50.10564 50.10564) rotate(12 -21.67 -48.143)" stroke-width=".012"/>
  <circle r=".5" stroke="#000" fill="none" transform="scale(48.60247 -48.60247) rotate(75 13.934 .477)" stroke-width=".013"/>
  <circle r=".5" stroke="#000" fill="none" transform="scale(-48.60247 48.60247) rotate(75 -4.964 -1.638)" stroke-width=".013"/>
  <circle r=".5" stroke="#000" fill="none" transform="scale(48.60247 -48.60247) rotate(15 52.46 13.5)" stroke-width=".013"/>
  <circle r=".5" stroke="#000" fill="none" transform="scale(48.60247 -48.60247) rotate(-45 -8.827 -7.217)" stroke-width=".013"/>
  <circle r=".5" stroke="#000" fill="none" transform="scale(-48.60247 48.60247) rotate(-45 3.291 20.498)" stroke-width=".013"/>
  <circle r=".5" stroke="#000" fill="none" transform="scale(-48.60247 48.60247) rotate(15 -18.937 -39.107)" stroke-width=".013"/>
  <circle r=".5" stroke="#000" fill="none" transform="scale(-47.1444 47.1444) rotate(78 -5.01 -1.476)" stroke-width=".013"/>
  <circle r=".5" stroke="#000" fill="none" transform="scale(47.1444 -47.1444) rotate(78 13.884 .138)" stroke-width=".013"/>
  <circle r=".5" stroke="#000" fill="none" transform="scale(47.1444 -47.1444) rotate(-42 -9.945 -7.74)" stroke-width=".013"/>
  <circle r=".5" stroke="#000" fill="none" transform="scale(47.1444 -47.1444) rotate(18 45.4 10.559)" stroke-width=".013"/>
  <circle r=".5" stroke="#000" fill="none" transform="scale(-47.1444 47.1444) rotate(-42 4.19 22.41)" stroke-width=".013"/>
  <circle r=".5" stroke="#000" fill="none" transform="scale(-47.1444 47.1444) rotate(18 -17.178 -33.07)" stroke-width=".013"/>
  <circle r=".5" stroke="#000" fill="none" transform="scale(-45.73006 45.73006) rotate(81 -5.061 -1.318)" stroke-width=".014"/>
  <circle r=".5" stroke="#000" fill="none" transform="scale(45.73006 -45.73006) rotate(81 13.85 -.2)" stroke-width=".014"/>
  <circle r=".5" stroke="#000" fill="none" transform="scale(45.73007 -45.73007) rotate(-39 -11.251 -8.334)" stroke-width=".014"/>
  <circle r=".5" stroke="#000" fill="none" transform="scale(-45.73007 45.73007) rotate(-39 5.26 24.617)" stroke-width=".014"/>
  <circle r=".5" stroke="#000" fill="none" transform="scale(45.73007 -45.73007) rotate(21 40.394 8.401)" stroke-width=".014"/>
  <circle r=".5" stroke="#000" fill="none" transform="scale(-45.73007 45.73007) rotate(21 -15.978 -28.746)" stroke-width=".014"/>
  <circle r=".5" stroke="#000" fill="none" transform="scale(44.35816 -44.35816) rotate(84 13.828 -.539)" stroke-width=".014"/>
  <circle r=".5" stroke="#000" fill="none" transform="scale(-44.35816 44.35816) rotate(84 -5.117 -1.162)" stroke-width=".014"/>
  <circle r=".5" stroke="#000" fill="none" transform="scale(44.35816 -44.35816) rotate(-36 -12.792 -9.012)" stroke-width=".014"/>
  <circle r=".5" stroke="#000" fill="none" transform="scale(44.35816 -44.35816) rotate(24 36.671 6.732)" stroke-width=".014"/>
  <circle r=".5" stroke="#000" fill="none" transform="scale(-44.35816 44.35816) rotate(-36 6.55 27.19)" stroke-width=".014"/>
  <circle r=".5" stroke="#000" fill="none" transform="scale(-44.35816 44.35816) rotate(24 -15.128 -25.49)" stroke-width=".014"/>
  <circle r=".5" stroke="#000" fill="none" transform="scale(43.02742 -43.02742) rotate(87 13.82 -.88)" stroke-width=".015"/>
  <circle r=".5" stroke="#000" fill="none" transform="scale(-43.02742 43.02742) rotate(87 -5.176 -1.007)" stroke-width=".015"/>
  <circle r=".5" stroke="#000" fill="none" transform="scale(43.02742 -43.02742) rotate(-33 -14.633 -9.797)" stroke-width=".015"/>
  <circle r=".5" stroke="#000" fill="none" transform="scale(-43.02742 43.02742) rotate(-33 8.119 30.226)" stroke-width=".015"/>
  <circle r=".5" stroke="#000" fill="none" transform="scale(43.02742 -43.02742) rotate(27 33.804 5.384)" stroke-width=".015"/>
  <circle r=".5" stroke="#000" fill="none" transform="scale(-43.02742 43.02742) rotate(27 -14.514 -22.946)" stroke-width=".015"/>
  <circle r=".5" stroke="#000" fill="none" transform="matrix(0 -41.7366 -41.7366 0 525.772 627.95)" stroke-width=".015"/>
  <circle r=".5" stroke="#000" fill="none" transform="matrix(0 41.7366 41.7366 0 254.228 183.05)" stroke-width=".015"/>
  <circle r=".5" stroke="#000" fill="none" transform="scale(41.7366 -41.7366) rotate(-30 -16.863 -10.722)" stroke-width=".015"/>
  <circle r=".5" stroke="#000" fill="none" transform="scale(-41.7366 41.7366) rotate(-30 10.052 33.867)" stroke-width=".015"/>
  <circle r=".5" stroke="#000" fill="none" transform="scale(41.7366 -41.7366) rotate(30 31.537 4.26)" stroke-width=".015"/>
  <circle r=".5" stroke="#000" fill="none" transform="scale(-41.7366 41.7366) rotate(30 -14.067 -20.898)" stroke-width=".015"/>
  <circle r=".5" stroke="#000" fill="none" transform="scale(-40.4845 40.4845) rotate(-87 1.657 14.578)" stroke-width=".015"/>
  <circle r=".5" stroke="#000" fill="none" transform="scale(40.4845 -40.4845) rotate(-87 .736 -5.59)" stroke-width=".015"/>
  <circle r=".5" stroke="#000" fill="none" transform="scale(40.4845 -40.4845) rotate(-27 -19.613 -11.831)" stroke-width=".015"/>
  <circle r=".5" stroke="#000" fill="none" transform="scale(-40.4845 40.4845) rotate(-27 12.474 38.31)" stroke-width=".015"/>
  <circle r=".5" stroke="#000" fill="none" transform="scale(40.4845 -40.4845) rotate(33 29.706 3.296)" stroke-width=".015"/>
  <circle r=".5" stroke="#000" fill="none" transform="scale(-40.4845 40.4845) rotate(33 -13.742 -19.21)" stroke-width=".015"/>
</g>
  </g>
  <g>
    <path d="M0 0 L760 0 L760 580 L0 580 L0 0" stroke-width="1" stroke="red" fill="None"/>
  </g>
  <g>
    <path d="M88.0 80.0 L672.0 80.0 L672.0 500.0 L88.0 500.0 L88.0 80.0" stroke-width="1" stroke="green" fill="None"/>
  </g>
  <g>
    <path d="M280.0 190.0 L480.0 190.0 L480.0 390.0 L280.0 390.0 L280.0 190.0" stroke-width="1" stroke="blue" fill="None"/>
  </g>
</svg>
